<?xml version="1.0" encoding="utf-8"?>
<!-- Generator: Adobe Illustrator 16.0.0, SVG Export Plug-In . SVG Version: 6.00 Build 0)  -->
<!DOCTYPE svg PUBLIC "-//W3C//DTD SVG 1.1//EN" "http://www.w3.org/Graphics/SVG/1.1/DTD/svg11.dtd">
<svg version="1.1" id="Layer_1" xmlns="http://www.w3.org/2000/svg" xmlns:xlink="http://www.w3.org/1999/xlink" x="0px" y="0px"
	 width="1000.043px" height="883.986px" viewBox="0 0 1000.043 883.986" enable-background="new 0 0 1000.043 883.986"
	 xml:space="preserve">
<g>
	<polygon fill="#283B8E" points="1.293,103.596 129.403,103.596 123.522,133.257 81.073,133.257 81.073,281.325 44.764,281.325 
		44.764,133.257 1.293,133.257 	"/>
	<path fill="#283B8E" d="M141.167,100.017l35.035-8.189c1.539,7.167,2.294,19.448,2.294,31.965v26.085
		c0,4.092-0.51,9.469-0.51,11.001c8.958-8.44,23.791-14.063,37.085-14.063c16.105,0,29.911,7.672,34.001,18.671
		c2.566,7.414,3.329,9.45,3.329,24.295v91.536h-33.504v-87.968c0-13.037-3.568-17.896-13.294-17.896
		c-8.435,0-19.435,5.119-27.107,12.014v93.85H143.72V129.933C143.72,117.654,142.705,105.394,141.167,100.017"/>
	<path fill="#283B8E" d="M374.375,246.533l13.294,20.471c-15.085,12.271-30.934,18.153-49.347,18.153
		c-37.589,0-61.883-26.602-61.883-67.765c0-23.533,4.86-39.12,16.365-51.911c10.741-12.022,23.778-17.645,41.17-17.645
		c15.09,0,29.399,5.106,37.848,13.812c12.021,12.26,17.385,29.917,17.385,57.281v7.917h-75.696v1.028
		c0,20.197,9.979,31.714,27.624,31.714C352.891,259.59,363.89,255.239,374.375,246.533 M314.027,201.791h39.639v-1.532
		c0-9.727-1.021-14.833-4.09-19.694c-3.322-5.105-8.184-7.672-15.085-7.672c-13.049,0-20.463,10.225-20.463,28.38V201.791z"/>
	<path fill="#283B8E" d="M0,323.643h37.848l15.343,70.072c7.413,33.24,9.462,58.549,9.462,58.549
		c0.763-6.896,3.833-32.218,9.197-56.772l15.859-71.848h39.122l16.364,79.52c3.329,16.624,7.672,47.052,7.672,47.052
		c0.517-5.615,6.657-44.226,9.727-59.072l14.568-67.5h37.589l-42.967,179.252h-39.107l-15.86-72.367
		c-6.14-27.609-8.188-50.127-8.434-51.659c0,0-3.587,25.07-8.707,51.155l-14.567,72.871h-40.66L0,323.643z"/>
	<path fill="#283B8E" d="M316.806,466.235l13.294,20.462c-15.084,12.274-30.931,18.154-49.344,18.154
		c-37.589,0-61.885-26.603-61.885-67.758c0-23.54,4.862-39.122,16.366-51.918c10.741-12.016,23.777-17.638,41.17-17.638
		c15.091,0,29.399,5.105,37.847,13.812c12.022,12.262,17.386,29.912,17.386,57.275v7.917h-75.696v1.035
		c0,20.19,9.979,31.707,27.623,31.707C295.323,479.283,306.323,474.941,316.806,466.235 M256.461,421.484h39.638v-1.532
		c0-9.721-1.021-14.827-4.084-19.686c-3.33-5.105-8.188-7.68-15.105-7.68c-13.035,0-20.448,10.225-20.448,28.386V421.484z"/>
	<path fill="#283B8E" d="M350.318,385.685c8.428-5.363,12.001-7.155,21.225-10.742c12.777-5.363,23.777-7.658,35.792-7.658
		c21.987,0,37.073,8.175,42.191,22.757c1.796,5.363,2.294,9.456,2.294,23.525l-0.755,43.981v2.296
		c0,14.069,2.294,19.435,12.273,26.847l-18.156,20.979c-7.93-3.327-15.084-9.203-18.414-15.86c-4.859,4.602-5.377,5.119-7.929,6.897
		c-6.399,4.607-15.603,7.174-26.344,7.174c-29.142,0-45.002-14.832-45.002-40.917c0-30.688,21.224-45.005,62.912-45.005
		c2.552,0,4.09,0,7.672,0.26v-5.378c0-14.573-2.812-19.434-15.344-19.434c-11,0-23.791,5.365-37.848,14.834L350.318,385.685z
		 M417.56,443.737h-1.532c-23.777,0-31.967,4.35-31.967,19.951c0,10.225,6.399,17.121,15.085,17.121
		c6.398,0,12.791-3.31,17.903-8.946L417.56,443.737z"/>
	<path fill="#283B8E" d="M548.991,368.034l-8.691,22.763h-21.994v66.732c0,16.629,3.063,20.979,14.839,20.979
		c3.069,0,6.14-0.777,12.26-2.572l4.363,20.469c-9.979,4.084-18.93,5.88-27.882,5.88c-17.379,0-31.449-7.678-35.288-19.175
		c-2.042-5.622-2.301-8.188-2.301-20.211v-72.102h-13.035v-22.246h13.035c0-12.791,0-21.483,1.28-31.204l34.777-8.692
		c-1.279,12.014-2.048,26.085-2.048,39.379H548.991z"/>
	<path fill="#283B8E" d="M556.65,317.913l35.036-8.183c1.539,7.168,2.295,19.428,2.295,31.961v26.091
		c0,4.085-0.511,9.462-0.511,11.001c8.957-8.449,23.791-14.071,37.085-14.071c16.106,0,29.911,7.672,34.001,18.671
		c2.566,7.414,3.33,9.45,3.33,24.282v91.55h-33.505v-87.97c0-13.036-3.567-17.896-13.295-17.896
		c-8.435,0-19.433,5.119-27.105,12.022v93.844h-34.778V347.831C559.203,335.558,558.189,323.278,556.65,317.913"/>
	<path fill="#283B8E" d="M789.857,464.432l13.295,20.469c-15.085,12.273-30.933,18.155-49.347,18.155
		c-37.588,0-61.884-26.603-61.884-67.766c0-23.532,4.86-39.122,16.365-51.913c10.741-12.022,23.777-17.644,41.17-17.644
		c15.09,0,29.399,5.105,37.849,13.811c12.021,12.26,17.384,29.918,17.384,57.284v7.93h-75.694v1.015
		c0,20.197,9.979,31.716,27.624,31.716C768.375,477.488,779.374,473.139,789.857,464.432 M729.513,419.687h39.637v-1.532
		c0-9.708-1.021-14.832-4.091-19.692c-3.321-5.107-8.182-7.671-15.085-7.671c-13.049,0-20.461,10.224-20.461,28.378V419.687z"/>
	<path fill="#283B8E" d="M823.635,373.405l30.692-8.188c3.069,5.378,4.86,11.258,5.365,18.672
		c4.859-6.657,13.048-13.554,19.428-16.624c2.811-1.272,7.419-2.049,11.259-2.049c5.105,0,7.412,0.517,12.79,2.826l-9.462,30.168
		c-3.328-1.79-6.141-2.559-9.979-2.559c-7.671,0-14.574,3.581-20.966,10.993v92.579h-34.269v-87.46
		C828.493,394.113,826.445,380.819,823.635,373.405"/>
	<path fill="#283B8E" d="M127.302,555.929l-16.106,24.293c-8.945-6.656-18.413-9.983-28.393-9.983
		c-12.001,0-23.777,5.894-30.163,15.341c-6.908,10.246-9.979,25.072-9.979,45.779c0,24.295,2.049,37.847,7.414,47.554
		c7.161,13.037,18.931,19.954,34.28,19.954c9.707,0,18.143-2.813,26.841-8.695c1.021-0.755,2.301-1.789,3.575-2.811l16.377,22.505
		c-14.071,11.499-29.156,16.616-49.366,16.616c-24.547,0-43.464-7.93-58.051-24.546c-14.309-16.106-21.471-37.59-21.471-63.675
		c0-22.246,3.833-39.883,12.022-55.227c13.812-25.833,39.379-41.176,68.017-41.176C99.944,541.858,117.595,547.494,127.302,555.929"
		/>
	<path fill="#283B8E" d="M197.11,589.938c18.671,0,33.239,6.396,44.499,19.686c10.482,12.266,15.084,26.589,15.084,47.82
		c0,22.497-5.119,37.841-16.358,50.618c-9.985,11.259-23.021,18.162-43.225,18.162c-35.541,0-58.815-26.589-58.815-67.766
		C138.295,617.301,161.827,589.938,197.11,589.938 M197.626,615.246c-8.188,0-14.833,5.118-17.644,13.313
		c-2.309,6.896-3.581,16.101-3.581,29.136c0,15.091,1.532,26.336,4.343,32.987c3.07,7.155,10.742,10.742,17.392,10.742
		c14.833,0,21.226-13.295,21.226-44.247c0-17.637-2.308-29.147-6.91-35.029C209.138,617.806,203.76,615.246,197.626,615.246"/>
	<path fill="#283B8E" d="M276.126,596.826l30.946-8.435c2.294,3.573,3.314,6.643,4.602,13.302
		c8.951-8.694,19.938-13.302,31.952-13.302c10.742,0,19.694,3.573,26.603,10.728c1.797,1.798,2.553,2.813,5.113,6.4
		c12.014-12.274,22.755-17.128,37.084-17.128c10.225,0,19.932,3.056,25.814,8.183c7.426,6.392,9.721,14.063,9.721,31.96v93.082
		h-33.239v-86.425c0-15.602-1.798-18.674-10.742-18.674c-6.399,0-15.343,4.345-22.764,11.002v94.097h-32.464V636.45
		c0-16.364-2.313-20.189-11.763-20.189c-6.397,0-15.084,3.329-22.504,9.964v95.392h-33.498v-91.285
		C280.987,611.4,279.708,603.224,276.126,596.826"/>
	<path fill="#283B8E" d="M480.179,591.707l30.429-5.378c1.279,4.602,2.055,8.188,2.307,12.273
		c5.883-7.155,18.918-12.273,32.213-12.273c9.21,0,18.671,3.069,25.833,7.932c14.063,9.46,24.287,26.33,24.287,56.52
		c0,28.12-4.344,42.693-18.154,57.016c-8.944,9.456-20.707,14.832-35.036,14.832c-10.225,0-19.932-2.564-27.358-6.914
		c0.518,3.084,0.518,10.756,0.518,10.756v40.902l-32.989,8.693v-151.37C482.227,607.555,481.97,602.694,480.179,591.707
		 M515.467,687.851c4.609,3.833,12.022,7.672,18.918,7.672c16.883,0,23.532-11.502,23.532-41.434
		c0-12.521-1.015-22.499-3.322-28.897c-2.554-7.155-7.93-10.98-16.364-10.98c-8.434,0-16.623,3.567-22.764,9.967V687.851z"/>
	<path fill="#283B8E" d="M616.989,604.477c8.435-5.357,12.022-7.152,21.231-10.728c12.777-5.371,23.777-7.664,35.792-7.664
		c21.987,0,37.073,8.167,42.191,22.756c1.797,5.365,2.294,9.461,2.294,23.519l-0.756,43.981v2.295
		c0,14.068,2.295,19.447,12.273,26.867l-18.154,20.967c-7.931-3.33-15.092-9.212-18.413-15.861
		c-4.861,4.602-5.378,5.119-7.931,6.908c-6.399,4.589-15.589,7.155-26.344,7.155c-29.143,0-45.003-14.826-45.003-40.911
		c0-30.693,21.226-45.003,62.911-45.003c2.554,0,4.086,0,7.673,0.252v-5.37c0-14.575-2.812-19.434-15.344-19.434
		c-11,0-23.777,5.376-37.848,14.825L616.989,604.477z M684.237,662.535h-1.532c-23.776,0-31.965,4.344-31.965,19.945
		c0,10.224,6.392,17.127,15.084,17.127c6.399,0,12.791-3.316,17.896-8.938L684.237,662.535z"/>
	<path fill="#283B8E" d="M745.869,596.058l30.429-8.688c3.056,5.357,4.86,10.98,4.86,16.365c7.917-5.623,9.455-6.657,15.092-9.727
		c6.896-3.576,15.846-5.623,23.519-5.623c14.567,0,27.365,7.672,31.449,18.931c1.79,4.846,2.553,10.481,2.553,18.657v95.643h-33.742
		v-85.158c0-14.827-2.566-19.169-11.505-19.169c-6.909,0-15.86,4.6-23.792,11.754v92.573h-34.261V626.75
		C750.471,615.491,748.919,604.75,745.869,596.058"/>
	<path fill="#283B8E" d="M870.394,592.993l35.036-4.084l22.764,76.191c2.294,7.932,6.896,27.101,6.896,27.101
		s2.553-14.567,4.092-20.966c2.048-8.184,2.565-9.462,5.118-18.154l19.687-62.137h36.058l-47.556,132.712
		c-8.95,25.322-15.607,36.31-25.069,43.219c-8.694,6.386-19.953,10.489-31.709,12.022l-11.763-22.499
		c7.42-2.055,16.106-5.125,21.225-8.706c3.833-2.811,6.903-6.386,9.715-10.728c3.321-5.377,4.355-7.672,7.425-15.349h-8.705
		c-2.036-6.135-3.07-8.688-5.364-15.344c-2.552-7.932-6.65-20.967-6.896-21.483L870.394,592.993z"/>
	<path fill="#0BA2DC" d="M673.722,0c-5.093,12.909-9.946,24.865-14.548,36.906C646.9,69.012,643.79,102.33,646.41,136.338
		c1.764,23.042,3.354,46.183-4.145,68.509c-13.818,41.13-42.775,64.715-85.694,70.438c-44.027,5.882-79.389-10.43-103.889-46.593
		c-36.489-53.829-20.628-138.894,61.207-161.312c20.271-5.556,41.196-8.706,61.666-13.632c34.326-8.277,63.574-26.417,90.886-48.099
		C668.583,3.938,670.771,2.281,673.722,0"/>
	<path fill="#6D6F70" d="M676.565,58.024l-0.815,1.347c-1.498-0.981-2.459-1.319-3.792-1.319c-1.957,0-3.11,0.98-3.11,2.553
		c0,1.253,0.75,1.981,2.599,2.539l1.778,0.57c1.386,0.437,2.128,0.843,2.758,1.579c0.623,0.716,1.015,1.762,1.015,2.738
		c0,1.446-0.802,2.811-2.155,3.739c-1.021,0.65-2.068,0.949-3.495,0.949c-1.855,0-3.447-0.445-4.992-1.399l0.822-1.452
		c1.293,0.921,2.613,1.333,4.17,1.333c1.181,0,1.812-0.179,2.474-0.683c0.75-0.57,1.114-1.314,1.114-2.208
		c0-1.394-0.907-2.356-2.798-2.912l-1.564-0.47c-1.413-0.438-2.142-0.75-2.766-1.394c-0.63-0.675-0.981-1.543-0.981-2.533
		c0-2.664,2.022-4.469,5.039-4.469C673.549,56.532,675.094,57.023,676.565,58.024"/>
	<path fill="#6D6F70" d="M681.685,56.863h2.719l2.837,10.158c0.299,1.089,0.406,1.526,0.611,2.732
		c0.258-1.313,0.365-1.751,0.57-2.539l2.931-10.352h2.744l1.333,15.57h-1.862l-0.909-11.411c-0.072-1.001-0.113-2.66-0.113-2.66
		c-0.157,0.777-0.431,1.831-0.608,2.453l-3.342,11.618h-1.586l-3.082-11.048c-0.312-1.192-0.544-1.948-0.763-3.037
		c0,0-0.12,2.063-0.187,3.011l-0.855,11.073h-1.797L681.685,56.863z"/>
	<path fill="#283B8E" d="M45.308,800.075h12.141l32.251,82.518H77.559l-9.018-24.852H33.644l-9.25,24.852H13.056L45.308,800.075z
		 M37.105,848.499H65.08l-13.759-38.484h-0.232L37.105,848.499z"/>
	<path fill="#283B8E" d="M98.121,822.839h9.243v9.481h0.232c4.158-7.407,10.755-10.867,19.421-10.867
		c15.722,0,20.568,9.017,20.568,21.835v39.313h-9.812v-40.455c0-7.397-4.635-12.027-12.141-12.027
		c-11.909,0-17.697,7.971-17.697,18.726v33.757h-9.813V822.839z"/>
	<rect x="190.804" y="800.062" fill="#283B8E" width="10.987" height="82.539"/>
	<path fill="#283B8E" d="M218.652,800.062h29.945c7.167,0,16.987,0,21.848,3.018c5.43,3.23,9.708,9.011,9.708,17.213
		c0,8.792-4.51,15.377-12.26,18.5v0.227c10.171,2.201,15.721,9.712,15.721,19.884c0,12.015-8.786,23.69-25.077,23.69h-39.884
		V800.062z M229.633,835.556h21.96c12.479,0,17.572-4.395,17.572-13.181c0-11.558-7.971-13.063-17.572-13.063h-21.96V835.556z
		 M229.633,873.351h27.518c9.587,0,15.496-5.662,15.496-14.785c0-10.756-8.68-13.773-17.929-13.773h-25.084V873.351z"/>
	<polygon fill="#283B8E" points="295.973,800.069 311.004,800.069 337.01,869.42 363.121,800.069 378.153,800.069 378.153,882.606 
		367.75,882.606 367.75,813.935 367.524,813.935 341.751,882.606 332.375,882.606 306.601,813.935 306.377,813.935 306.377,882.606 
		295.973,882.606 	"/>
	<path fill="#283B8E" d="M422.645,800.062h29.924c7.174,0,16.988,0,21.855,3.018c5.43,3.23,9.707,9.011,9.707,17.213
		c0,8.792-4.509,15.377-12.261,18.5v0.227c10.166,2.201,15.722,9.712,15.722,19.884c0,12.015-8.786,23.69-25.083,23.69h-39.864
		V800.062z M433.612,835.556h21.96c12.479,0,17.572-4.395,17.572-13.181c0-11.558-7.97-13.063-17.572-13.063h-21.96V835.556z
		 M433.612,873.351h27.517c9.583,0,15.489-5.662,15.489-14.785c0-10.756-8.672-13.773-17.922-13.773h-25.084V873.351z"/>
	<path fill="#283B8E" d="M547.918,882.593h-9.25v-9.475h-0.231c-4.151,7.4-10.755,10.862-19.415,10.862
		c-15.729,0-20.574-9.013-20.574-21.848v-39.302h9.832v40.455c0,7.398,4.615,12.033,12.122,12.033
		c11.915,0,17.696-7.977,17.696-18.731v-33.757h9.82V882.593z"/>
	<path fill="#283B8E" d="M567.558,863.756c0.352,8.786,8.097,11.558,16.067,11.558c6.12,0,14.447-1.386,14.447-8.899
		c0-15.368-39.068-4.965-39.068-27.966c0-12.021,11.783-16.995,22.312-16.995c13.401,0,23.574,4.157,24.495,18.731h-9.82
		c-0.584-7.638-7.506-10.066-13.878-10.066c-5.889,0-12.711,1.618-12.711,7.633c0,6.942,10.404,8.322,19.547,10.404
		c9.813,2.201,19.528,5.537,19.528,16.986c0,14.337-13.295,18.845-25.423,18.845c-13.421,0-24.745-5.442-25.315-20.23H567.558z"/>
	<path fill="#283B8E" d="M628.461,812.084h-9.814v-12.022h9.814V812.084z M618.635,822.839h9.813v59.762h-9.813V822.839z"/>
	<path fill="#283B8E" d="M641.755,822.839h9.243v9.481h0.231c4.158-7.407,10.756-10.867,19.422-10.867
		c15.721,0,20.568,9.017,20.568,21.835v39.313h-9.813v-40.455c0-7.397-4.635-12.027-12.141-12.027
		c-11.908,0-17.697,7.971-17.697,18.726v33.757h-9.813V822.839z"/>
	<path fill="#283B8E" d="M755.021,863.643c-2.666,13.295-12.022,20.344-25.549,20.344c-19.063,0-28.094-13.294-28.663-31.442
		c0-18.028,11.789-31.099,28.079-31.099c21.159,0,27.637,19.774,27.053,34.228h-44.729c-0.339,10.385,5.556,19.646,18.619,19.646
		c8.201,0,13.737-3.812,15.475-11.677H755.021z M745.538,846.994c-0.57-9.356-7.399-16.882-17.22-16.882
		c-10.172,0-16.523,7.631-17.106,16.882H745.538z"/>
	<path fill="#283B8E" d="M773.042,863.756c0.339,8.786,8.096,11.558,16.066,11.558c6.126,0,14.448-1.386,14.448-8.899
		c0-15.368-39.068-4.965-39.068-27.966c0-12.021,11.789-16.995,22.313-16.995c13.4,0,23.572,4.157,24.493,18.731h-9.813
		c-0.583-7.638-7.514-10.066-13.879-10.066c-5.895,0-12.711,1.618-12.711,7.633c0,6.942,10.397,8.322,19.541,10.404
		c9.813,2.201,19.527,5.537,19.527,16.986c0,14.337-13.294,18.845-25.435,18.845c-13.408,0-24.733-5.442-25.303-20.23H773.042z"/>
	<path fill="#283B8E" d="M831.75,863.756c0.338,8.786,8.096,11.558,16.066,11.558c6.12,0,14.447-1.386,14.447-8.899
		c0-15.368-39.066-4.965-39.066-27.966c0-12.021,11.781-16.995,22.312-16.995c13.4,0,23.572,4.157,24.494,18.731h-9.821
		c-0.583-7.638-7.506-10.066-13.878-10.066c-5.888,0-12.704,1.618-12.704,7.633c0,6.942,10.397,8.322,19.541,10.404
		c9.813,2.201,19.527,5.537,19.527,16.986c0,14.337-13.294,18.845-25.435,18.845c-13.408,0-24.733-5.442-25.303-20.23H831.75z"/>
</g>
</svg>
